# xmcd
#
# Track frame offsets:
#	150
#	10824
#	22119
#	44558
#	57511
#	69202
#	81636
#	92539
#	115002
#	133437
#	147612
#	160565
#	177787
#	191616
#	205133
#	219910
#	250793
#	265292
#	280619
#	295780
#
# Disc length: 4164 seconds
#
# Revision: 1
# Processed by: cddbd v1.5.1PL0 Copyright (c) Steve Scherf et al.
# Submitted via: EasyCDDAExtractor 6.5.0.3
#
DISCID=28104214
DTITLE=Spencer Davis - Keep On Running  40th  Anniversary
DYEAR=1900
DGENRE=
TTITLE0=Dimples (Radio Session)
TTITLE1=I Can't Stand It (Radio Session)
TTITLE2=Every Little Bit Hurts
TTITLE3=I Can't Get Enough Of It
TTITLE4=She Put The Hurt On Me
TTITLE5=Keep On Running
TTITLE6=When I Come Home (Live)
TTITLE7=Georgia On My Mind (Live)
TTITLE8=Gimme Some Lovin' (Live)
TTITLE9=I'm A Man (Live)
TTITLE10=Every Little Thing
TTITLE11=Looking Back
TTITLE12=Don't Want You No More
TTITLE13=Time Seller
TTITLE14=Mr. Second Class
TTITLE15=Alec In Transit Land
TTITLE16=Catch You On the Rebop
TTITLE17=Living In A Back Street
TTITLE18=Back Street Boys
TTITLE19=Today Gluggo, Tomorrow The World
EXTD=
EXTT0=
EXTT1=
EXTT2=
EXTT3=
EXTT4=
EXTT5=
EXTT6=
EXTT7=
EXTT8=
EXTT9=
EXTT10=
EXTT11=
EXTT12=
EXTT13=
EXTT14=
EXTT15=
EXTT16=
EXTT17=
EXTT18=
EXTT19=
PLAYORDER=
